<?xml version="1.0" encoding="utf-8"?>
<!-- Generator: Adobe Illustrator 22.0.0, SVG Export Plug-In . SVG Version: 6.00 Build 0)  -->
<svg version="1.1" id="图层_1" xmlns="http://www.w3.org/2000/svg" xmlns:xlink="http://www.w3.org/1999/xlink" x="0px" y="0px"
	 viewBox="0 0 89 74.9" style="enable-background:new 0 0 89 74.9;" xml:space="preserve">
<style type="text/css">
	.st0{fill:url(#SVGID_1_);}
</style>
<linearGradient id="SVGID_1_" gradientUnits="userSpaceOnUse" x1="13.4603" y1="128.1836" x2="82.7829" y2="58.861" gradientTransform="matrix(1 0 0 -1 0 132.0667)">
	<stop  offset="0" style="stop-color:#6534ED"/>
	<stop  offset="0.475" style="stop-color:#C25AED"/>
	<stop  offset="1" style="stop-color:#BF008A;stop-opacity:0.7"/>
</linearGradient>
<path class="st0" d="M88.9,30L77.2,5.7c-0.1-0.2-0.3-0.4-0.4-0.6c-2-3.1-5.5-5.2-9.5-5.2c-0.4,0-0.8,0-1.2,0.1h-9
	c-1.9,5.5-7,9.4-13.2,9.4S32.6,5.5,30.7,0h-8.2c-0.4,0-0.8-0.1-1.2-0.1c-5.2,0-9.5,3.5-10.9,8.2L0,30c-0.5,1,0,2.2,1,2.7l10.2,4.8
	c1,0.5,2.2,0,2.7-1l5.7-12.1L21,73.3c0,0.8,0.7,1.5,1.5,1.5h43.6c0.8,0,1.5-0.7,1.5-1.5L69,23.4l6.3,13c0.5,1,1.7,1.4,2.7,0.9
	l10.2-4.9C88.9,32.2,89.4,31,88.9,30z"/>
</svg>
